<?xml version="1.0" standalone="no"?><!DOCTYPE svg PUBLIC "-//W3C//DTD SVG 1.1//EN" "http://www.w3.org/Graphics/SVG/1.1/DTD/svg11.dtd"><svg t="1512529288281" class="icon" style="" viewBox="0 0 1024 1024" version="1.1" xmlns="http://www.w3.org/2000/svg" p-id="1838" xmlns:xlink="http://www.w3.org/1999/xlink" width="200" height="200"><defs><style type="text/css"></style></defs><path d="M820.465288 445.991724C806.370575 445.991724 795.954023 457.438161 795.954023 471.503448L795.954023 808.687816C795.954023 842.262069 769.971494 870.863445 736.426667 870.863445L206.918621 870.863445C173.373793 870.863445 134.355862 842.262069 134.355862 808.687816L134.355862 277.62023C134.355862 243.957701 173.373793 208.117701 206.918621 208.117701L492.049655 208.117701C506.173793 208.117701 517.531954 197.671724 517.531954 183.547587 517.531954 169.423448 506.173793 159.006897 492.049655 159.006897L206.918621 159.006897C139.917241 159.006897 85.333333 210.324598 85.333333 277.62023L85.333333 808.687816C85.333333 875.924599 139.917241 919.974255 206.918621 919.974255L736.426667 919.974255C803.486897 919.974255 844.976552 875.924599 844.976552 808.687816L844.976552 471.503448C844.976552 457.438161 834.56 445.991724 820.465288 445.991724L820.465288 445.991724ZM896.411955 193.228506 809.989885 106.718161C781.623908 78.205057 731.689196 78.205057 703.293793 106.718161L632.761379 189.785747 256.853333 550.304368 232.047816 766.374253 243.994482 776.790804 454.091034 748.130575 813.550345 371.045518 896.411955 303.27908C925.807812 273.794942 925.807812 222.712643 896.411955 193.228506L896.411955 193.228506ZM291.987127 716.586667 298.137011 615.451954 391.326897 708.75954 291.987127 716.586667 291.987127 716.586667ZM436.20046 682.423908 322.206897 568.283219 658.273103 233.305747 770.177471 345.445518 436.20046 682.423908 436.20046 682.423908ZM860.836779 264.584828 810.754942 314.754942 688.787127 192.610575 738.83954 142.411034C743.577011 137.644138 749.903448 135.054712 756.641839 135.054712 763.409655 135.054712 769.706667 137.644138 774.444138 142.411034L860.777933 228.862529C870.635401 238.72 870.635401 254.727357 860.836779 264.584828L860.836779 264.584828Z" p-id="1839" fill="#ffffff"></path></svg>